# xmcd CD database file
#
# Track frame offsets:
#	150
#	16595
#	40662
#	65267
#	94045
#
# Disc length: 1509 seconds
#
# Revision: 1
# Processed by: cddbd v1.5.1PL0 Copyright (c) Steve Scherf et al.
# Submitted via: NeoAudio 9.9.9
#
DISCID=2c05e305
DTITLE=Back to the Planet - A Small Nuclear Device [CD-Single)
DYEAR=1995
DGENRE=New Age
TTITLE0=Flexing Muscle (Radio Edit)
TTITLE1=Flexing Muscle
TTITLE2=Immanent Deities
TTITLE3=Meditational Thoughts (dub)
TTITLE4=Colour Sex (dub)
EXTD=YEAR: 1995
EXTT0=
EXTT1=
EXTT2=
EXTT3=
EXTT4=
PLAYORDER=
